<svg width="20" height="20" viewBox="0 0 20 20" fill="none" xmlns="http://www.w3.org/2000/svg">
<g clip-path="url(#clip0_50_221)">
<path fill-rule="evenodd" clip-rule="evenodd" d="M15.0919 9.01539L22.6838 15.4361L21.2029 16.7881L15.0528 11.5868L10.0853 15.5684L7.81609 13.598L4.593 16.319L3.11341 14.9658L7.83708 10.978L10.1441 12.9813L15.0919 9.01539Z" fill="white"/>
<path fill-rule="evenodd" clip-rule="evenodd" d="M5.78115 2.40514L6.81358 -0.316406H8.83958L9.87202 2.40514L12.9693 3.31233V5.09254L9.87202 5.99972L8.83958 8.72127H6.81358L5.78115 5.99972L2.68384 5.09254V3.31233L5.78115 2.40514ZM7.82658 2.94731L7.63831 3.4436L6.96298 4.037L6.39817 4.20243L6.96298 4.36786L7.63831 4.96126L7.82658 5.45755L8.01485 4.96126L8.69019 4.36786L9.255 4.20243L8.69019 4.037L8.01485 3.4436L7.82658 2.94731Z" fill="white"/>
<path d="M3.0215 17.8071H5.15709V19.6836H3.0215V17.8071Z" fill="white"/>
<path d="M3.0215 9.36282H5.15709V11.2393H3.0215V9.36282Z" fill="white"/>
<path d="M7.29269 17.8071H9.42828V19.6836H7.29269V17.8071Z" fill="white"/>
<path d="M11.5639 17.8071H13.6995V19.6836H11.5639V17.8071Z" fill="white"/>
<path d="M15.835 17.8071H17.9706V19.6836H15.835V17.8071Z" fill="white"/>
<path d="M20.1062 17.8071H22.2418V19.6836H20.1062V17.8071Z" fill="white"/>
<path d="M20.1062 10.3011H22.2418V12.1776H20.1062V10.3011Z" fill="white"/>
<path d="M20.1062 6.54806H22.2418V8.42457H20.1062V6.54806Z" fill="white"/>
<path d="M20.1062 2.79505H22.2418V4.67156H20.1062V2.79505Z" fill="white"/>
<path d="M15.835 2.79505H17.9706V4.67156H15.835V2.79505Z" fill="white"/>
</g>
<defs>
<clipPath id="clip0_50_221">
<rect width="20" height="20" fill="white"/>
</clipPath>
</defs>
</svg>
