<svg width="24" height="24" viewBox="0 0 24 24" fill="none" xmlns="http://www.w3.org/2000/svg">
<path opacity="0.4" fill-rule="evenodd" clip-rule="evenodd" d="M19 1.25C16.9289 1.25 15.25 2.92893 15.25 5C15.25 6.81422 16.5383 8.32753 18.25 8.67499L18.25 12C18.25 12.4142 18.5858 12.75 19 12.75C19.4142 12.75 19.75 12.4142 19.75 12V8.67499C21.4617 8.32753 22.75 6.81422 22.75 5C22.75 2.92893 21.0711 1.25 19 1.25ZM19 7.25C20.2426 7.25 21.25 6.24264 21.25 5C21.25 3.75736 20.2426 2.75 19 2.75C17.7574 2.75 16.75 3.75736 16.75 5C16.75 6.24264 17.7574 7.25 19 7.25Z" fill="#F5F5F5"/>
<path fill-rule="evenodd" clip-rule="evenodd" d="M5 1.25C2.92893 1.25 1.25 2.92893 1.25 5C1.25 7.07107 2.92893 8.75 5 8.75C6.81422 8.75 8.32753 7.46168 8.67499 5.75H12C12.4142 5.75 12.75 5.41421 12.75 5C12.75 4.58579 12.4142 4.25 12 4.25H8.67499C8.32753 2.53832 6.81422 1.25 5 1.25ZM7.25 5C7.25 3.75736 6.24264 2.75 5 2.75C3.75736 2.75 2.75 3.75736 2.75 5C2.75 6.24264 3.75736 7.25 5 7.25C6.24264 7.25 7.25 6.24264 7.25 5ZM5.75 12C5.75 11.5858 5.41421 11.25 5 11.25C4.58579 11.25 4.25 11.5858 4.25 12L4.25 15.325C2.53832 15.6725 1.25 17.1858 1.25 19C1.25 21.0711 2.92893 22.75 5 22.75C7.07107 22.75 8.75 21.0711 8.75 19C8.75 17.1858 7.46168 15.6725 5.75 15.325V12ZM5 16.75C3.75736 16.75 2.75 17.7574 2.75 19C2.75 20.2426 3.75736 21.25 5 21.25C6.24264 21.25 7.25 20.2426 7.25 19C7.25 17.7574 6.24264 16.75 5 16.75ZM15.325 19.75H12C11.5858 19.75 11.25 19.4142 11.25 19C11.25 18.5858 11.5858 18.25 12 18.25H15.325C15.6725 16.5383 17.1858 15.25 19 15.25C21.0711 15.25 22.75 16.9289 22.75 19C22.75 21.0711 21.0711 22.75 19 22.75C17.1858 22.75 15.6725 21.4617 15.325 19.75ZM16.75 19C16.75 20.2426 17.7574 21.25 19 21.25C20.2426 21.25 21.25 20.2426 21.25 19C21.25 17.7574 20.2426 16.75 19 16.75C17.7574 16.75 16.75 17.7574 16.75 19Z" fill="#F5F5F5"/>
</svg>
