<svg width="20" height="20" viewBox="0 0 20 20" fill="none" xmlns="http://www.w3.org/2000/svg">
<g clip-path="url(#clip0_50_234)">
<path fill-rule="evenodd" clip-rule="evenodd" d="M0 0H3.88889V2.22222H2.22222V3.88889H0V0ZM12.7778 2.22222H7.22222V0H12.7778V2.22222ZM17.7778 2.22222H16.1111V0H20V3.88889H17.7778V2.22222ZM2.22222 7.22222V12.7778H0V7.22222H2.22222ZM17.7778 12.7778V7.22222H20V12.7778H17.7778ZM2.22222 17.7778V16.1111H0V20H3.88889V17.7778H2.22222ZM17.7778 17.7778V16.1111H20V20H16.1111V17.7778H17.7778ZM7.22222 17.7778H12.7778V20H7.22222V17.7778Z" fill="white"/>
<path fill-rule="evenodd" clip-rule="evenodd" d="M7.7327 7.7327L8.94591 4.09308H11.0541L12.2673 7.7327L15.9069 8.94591V11.0541L12.2673 12.2673L11.0541 15.9069H8.94591L7.7327 12.2673L4.09308 11.0541V8.94591L7.7327 7.7327ZM10 7.95809L9.6652 8.96248L8.96248 9.6652L7.95809 10L8.96248 10.3348L9.6652 11.0375L10 12.0419L10.3348 11.0375L11.0375 10.3348L12.0419 10L11.0375 9.6652L10.3348 8.96248L10 7.95809Z" fill="white"/>
</g>
<defs>
<clipPath id="clip0_50_234">
<rect width="20" height="20" fill="white"/>
</clipPath>
</defs>
</svg>
