<svg width="30" height="30" viewBox="0 0 30 30" fill="none" xmlns="http://www.w3.org/2000/svg">
<path opacity="0.4" fill-rule="evenodd" clip-rule="evenodd" d="M22.5 1.75C22.9142 1.75 23.25 2.08579 23.25 2.5V6.75H27.5C27.9142 6.75 28.25 7.08579 28.25 7.5C28.25 7.91421 27.9142 8.25 27.5 8.25H23.25V12.5C23.25 12.9142 22.9142 13.25 22.5 13.25C22.0858 13.25 21.75 12.9142 21.75 12.5V8.25H17.5C17.0858 8.25 16.75 7.91421 16.75 7.5C16.75 7.08579 17.0858 6.75 17.5 6.75H21.75V2.5C21.75 2.08579 22.0858 1.75 22.5 1.75Z" fill="#F5F5F5"/>
<path fill-rule="evenodd" clip-rule="evenodd" d="M5.66957 1.75L5.7 1.75H9.3L9.33044 1.75C9.86459 1.74999 10.3104 1.74998 10.6747 1.77974C11.0546 1.81078 11.4112 1.87789 11.7485 2.04973C12.2659 2.31338 12.6866 2.73408 12.9503 3.25153C13.1221 3.58879 13.1892 3.94545 13.2203 4.32533C13.25 4.68955 13.25 5.13538 13.25 5.66951V5.66955V5.7V9.3V9.33045V9.3305C13.25 9.86462 13.25 10.3105 13.2203 10.6747C13.1892 11.0546 13.1221 11.4112 12.9503 11.7485C12.6866 12.2659 12.2659 12.6866 11.7485 12.9503C11.4112 13.1221 11.0546 13.1892 10.6747 13.2203C10.3105 13.25 9.86462 13.25 9.3305 13.25H9.33045H9.3H5.7H5.66955H5.66951C5.13538 13.25 4.68955 13.25 4.32533 13.2203C3.94545 13.1892 3.58879 13.1221 3.25153 12.9503C2.73408 12.6866 2.31338 12.2659 2.04973 11.7485C1.87789 11.4112 1.81078 11.0546 1.77974 10.6747C1.74998 10.3104 1.74999 9.86459 1.75 9.33044L1.75 9.3V5.7L1.75 5.66957C1.74999 5.13541 1.74998 4.68956 1.77974 4.32533C1.81078 3.94545 1.87789 3.58879 2.04973 3.25153C2.31338 2.73408 2.73408 2.31338 3.25153 2.04973C3.58879 1.87789 3.94545 1.81078 4.32533 1.77974C4.68956 1.74998 5.13541 1.74999 5.66957 1.75ZM4.44748 3.27476C4.16036 3.29822 4.02307 3.3401 3.93251 3.38624C3.69731 3.50608 3.50608 3.69731 3.38624 3.93251C3.3401 4.02307 3.29822 4.16036 3.27476 4.44748C3.25058 4.74336 3.25 5.12757 3.25 5.7V9.3C3.25 9.87243 3.25058 10.2566 3.27476 10.5525C3.29822 10.8396 3.3401 10.9769 3.38624 11.0675C3.50608 11.3027 3.69731 11.4939 3.93251 11.6138C4.02307 11.6599 4.16036 11.7018 4.44748 11.7252C4.74336 11.7494 5.12757 11.75 5.7 11.75H9.3C9.87243 11.75 10.2566 11.7494 10.5525 11.7252C10.8396 11.7018 10.9769 11.6599 11.0675 11.6138C11.3027 11.4939 11.4939 11.3027 11.6138 11.0675C11.6599 10.9769 11.7018 10.8396 11.7252 10.5525C11.7494 10.2566 11.75 9.87243 11.75 9.3V5.7C11.75 5.12757 11.7494 4.74336 11.7252 4.44748C11.7018 4.16036 11.6599 4.02307 11.6138 3.93251C11.4939 3.69731 11.3027 3.50608 11.0675 3.38624C10.9769 3.3401 10.8396 3.29822 10.5525 3.27476C10.2566 3.25058 9.87243 3.25 9.3 3.25H5.7C5.12757 3.25 4.74336 3.25058 4.44748 3.27476ZM5.66957 16.75H5.7H9.3H9.33044C9.86459 16.75 10.3104 16.75 10.6747 16.7797C11.0546 16.8108 11.4112 16.8779 11.7485 17.0497C12.2659 17.3134 12.6866 17.7341 12.9503 18.2515C13.1221 18.5888 13.1892 18.9454 13.2203 19.3253C13.25 19.6896 13.25 20.1354 13.25 20.6695V20.6695V20.7V24.3V24.3305V24.3305C13.25 24.8646 13.25 25.3105 13.2203 25.6747C13.1892 26.0546 13.1221 26.4112 12.9503 26.7485C12.6866 27.2659 12.2659 27.6866 11.7485 27.9503C11.4112 28.1221 11.0546 28.1892 10.6747 28.2203C10.3105 28.25 9.8647 28.25 9.33064 28.25H9.33045H9.3H5.7H5.66955H5.66936C5.1353 28.25 4.68952 28.25 4.32533 28.2203C3.94545 28.1892 3.58879 28.1221 3.25153 27.9503C2.73408 27.6866 2.31338 27.2659 2.04973 26.7485C1.87789 26.4112 1.81078 26.0546 1.77974 25.6747C1.74998 25.3104 1.74999 24.8646 1.75 24.3304L1.75 24.3V20.7L1.75 20.6696C1.74999 20.1354 1.74998 19.6896 1.77974 19.3253C1.81078 18.9454 1.87789 18.5888 2.04973 18.2515C2.31338 17.7341 2.73408 17.3134 3.25153 17.0497C3.58879 16.8779 3.94545 16.8108 4.32533 16.7797C4.68956 16.75 5.13541 16.75 5.66957 16.75ZM4.44748 18.2748C4.16036 18.2982 4.02307 18.3401 3.93251 18.3862C3.69731 18.5061 3.50608 18.6973 3.38624 18.9325C3.3401 19.0231 3.29822 19.1604 3.27476 19.4475C3.25058 19.7434 3.25 20.1276 3.25 20.7V24.3C3.25 24.8724 3.25058 25.2566 3.27476 25.5525C3.29822 25.8396 3.3401 25.9769 3.38624 26.0675C3.50608 26.3027 3.69731 26.4939 3.93251 26.6138C4.02307 26.6599 4.16036 26.7018 4.44748 26.7252C4.74336 26.7494 5.12757 26.75 5.7 26.75H9.3C9.87243 26.75 10.2566 26.7494 10.5525 26.7252C10.8396 26.7018 10.9769 26.6599 11.0675 26.6138C11.3027 26.4939 11.4939 26.3027 11.6138 26.0675C11.6599 25.9769 11.7018 25.8396 11.7252 25.5525C11.7494 25.2566 11.75 24.8724 11.75 24.3V20.7C11.75 20.1276 11.7494 19.7434 11.7252 19.4475C11.7018 19.1604 11.6599 19.0231 11.6138 18.9325C11.4939 18.6973 11.3027 18.5061 11.0675 18.3862C10.9769 18.3401 10.8396 18.2982 10.5525 18.2748C10.2566 18.2506 9.87243 18.25 9.3 18.25H5.7C5.12757 18.25 4.74336 18.2506 4.44748 18.2748ZM20.7 16.75H20.6696C20.1354 16.75 19.6896 16.75 19.3253 16.7797C18.9454 16.8108 18.5888 16.8779 18.2515 17.0497C17.7341 17.3134 17.3134 17.7341 17.0497 18.2515C16.8779 18.5888 16.8108 18.9454 16.7797 19.3253C16.75 19.6896 16.75 20.1354 16.75 20.6696V20.7V24.3V24.3304C16.75 24.8646 16.75 25.3104 16.7797 25.6747C16.8108 26.0546 16.8779 26.4112 17.0497 26.7485C17.3134 27.2659 17.7341 27.6866 18.2515 27.9503C18.5888 28.1221 18.9454 28.1892 19.3253 28.2203C19.6895 28.25 20.1353 28.25 20.6694 28.25H20.6695H20.7H24.3H24.3305H24.3306C24.8647 28.25 25.3105 28.25 25.6747 28.2203C26.0546 28.1892 26.4112 28.1221 26.7485 27.9503C27.2659 27.6866 27.6866 27.2659 27.9503 26.7485C28.1221 26.4112 28.1892 26.0546 28.2203 25.6747C28.25 25.3105 28.25 24.8647 28.25 24.3306V24.3305V24.3V20.7V20.6695V20.6694C28.25 20.1353 28.25 19.6895 28.2203 19.3253C28.1892 18.9454 28.1221 18.5888 27.9503 18.2515C27.6866 17.7341 27.2659 17.3134 26.7485 17.0497C26.4112 16.8779 26.0546 16.8108 25.6747 16.7797C25.3104 16.75 24.8646 16.75 24.3304 16.75H24.3H20.7ZM18.9325 18.3862C19.0231 18.3401 19.1604 18.2982 19.4475 18.2748C19.7434 18.2506 20.1276 18.25 20.7 18.25H24.3C24.8724 18.25 25.2566 18.2506 25.5525 18.2748C25.8396 18.2982 25.9769 18.3401 26.0675 18.3862C26.3027 18.5061 26.4939 18.6973 26.6138 18.9325C26.6599 19.0231 26.7018 19.1604 26.7252 19.4475C26.7494 19.7434 26.75 20.1276 26.75 20.7V24.3C26.75 24.8724 26.7494 25.2566 26.7252 25.5525C26.7018 25.8396 26.6599 25.9769 26.6138 26.0675C26.4939 26.3027 26.3027 26.4939 26.0675 26.6138C25.9769 26.6599 25.8396 26.7018 25.5525 26.7252C25.2566 26.7494 24.8724 26.75 24.3 26.75H20.7C20.1276 26.75 19.7434 26.7494 19.4475 26.7252C19.1604 26.7018 19.0231 26.6599 18.9325 26.6138C18.6973 26.4939 18.5061 26.3027 18.3862 26.0675C18.3401 25.9769 18.2982 25.8396 18.2748 25.5525C18.2506 25.2566 18.25 24.8724 18.25 24.3V20.7C18.25 20.1276 18.2506 19.7434 18.2748 19.4475C18.2982 19.1604 18.3401 19.0231 18.3862 18.9325C18.5061 18.6973 18.6973 18.5061 18.9325 18.3862Z" fill="#F5F5F5"/>
</svg>
