<svg width="20" height="20" viewBox="0 0 20 20" fill="none" xmlns="http://www.w3.org/2000/svg">
<path fill-rule="evenodd" clip-rule="evenodd" d="M3.62418 3.58581L4.6803 0.456055H6.17362L7.22974 3.58581L10.3981 4.62906V6.10417L7.22974 7.14742L6.17362 10.2772H4.6803L3.62418 7.14742L0.455811 6.10417V4.62906L3.62418 3.58581ZM5.42696 3.16042L4.99305 4.44629L4.49528 4.93799L3.19355 5.36661L4.49528 5.79524L4.99305 6.28694L5.42696 7.5728L5.86087 6.28694L6.35864 5.79524L7.66037 5.36661L6.35864 4.93799L5.86087 4.44629L5.42696 3.16042Z" fill="white"/>
<path fill-rule="evenodd" clip-rule="evenodd" d="M15.4955 5.2056C16.0202 4.6873 16.8709 4.6873 17.3956 5.2056C17.9203 5.7239 17.9203 6.56423 17.3956 7.08253L10.9363 13.4632L9.03618 11.5862L15.4955 5.2056Z" fill="white"/>
<path fill-rule="evenodd" clip-rule="evenodd" d="M5.60081 16.0902C6.01953 16.2615 6.4412 16.2944 6.90068 16.1095C7.43636 15.894 7.62358 15.5428 7.67078 15.1551C7.69733 14.9371 7.67405 14.7128 7.61704 14.5225C7.55957 14.3306 7.49074 14.2458 7.48492 14.2386C7.31541 14.07 7.20442 14.0074 7.13371 13.978C7.06469 13.9493 6.95411 13.9186 6.73864 13.9186C6.6842 13.9186 6.58442 13.9271 6.45905 13.9553C6.34473 13.9811 6.23855 14.0166 6.15337 14.055C6.14822 14.093 6.14307 14.1318 6.13778 14.1717C6.13603 14.185 6.13426 14.1985 6.13245 14.2122C6.11583 14.3383 6.097 14.4812 6.07539 14.6207C6.02838 14.924 5.95366 15.3183 5.78805 15.7139C5.7352 15.8401 5.67331 15.9661 5.60081 16.0902ZM4.40644 17.2287C5.22441 17.7195 6.30114 18.0297 7.4945 17.5495C9.7557 16.6397 9.50185 14.0385 8.60167 13.1427C8.04303 12.5868 7.4945 12.3637 6.7387 12.3637C5.9829 12.3636 4.76225 12.7723 4.63992 13.5299C4.61333 13.6945 4.59218 13.8548 4.57172 14.01C4.51598 14.4327 4.46535 14.8167 4.32384 15.1421C4.13689 15.5721 3.79133 15.9001 3.06583 16.0806C3.32883 16.3946 3.79545 16.862 4.40644 17.2287Z" fill="white"/>
</svg>
