<svg width="26" height="26" viewBox="0 0 26 26" fill="none" xmlns="http://www.w3.org/2000/svg">
<path fill-rule="evenodd" clip-rule="evenodd" d="M21.6659 4.33301L21.6666 10.3772L19.9333 10.3774L19.9329 7.29186L18.1996 9.02534L16.974 7.79975L18.7071 6.06643L15.5997 6.06654L15.5996 4.33323L21.6659 4.33301ZM13.6146 13.6146L14.7775 10.1257H16.4218L17.5848 13.6146L21.0735 14.7775V16.4219L17.5848 17.5849L16.4218 21.0737H14.7775L13.6146 17.5849L10.1258 16.4219V14.7775L13.6146 13.6146ZM15.5997 13.1404L15.1219 14.5738L14.5738 15.1219L13.1404 15.5997L14.5738 16.0775L15.1219 16.6256L15.5997 18.059L16.0774 16.6256L16.6256 16.0775L18.0589 15.5997L16.6256 15.1219L16.0774 14.5738L15.5997 13.1404ZM6.06653 15.6219L6.06689 18.7075L7.8002 16.974L9.02586 18.1996L7.2927 19.9329L10.4002 19.9328L10.4002 21.6661L4.33395 21.6663L4.33325 15.6221L6.06653 15.6219Z" fill="white"/>
<path fill-rule="evenodd" clip-rule="evenodd" d="M7.93047 7.93038L8.60656 5.90207H9.59316L10.2693 7.93038L12.2975 8.60649V9.59311L10.2693 10.2692L9.59316 12.2975H8.60656L7.93047 10.2692L5.90219 9.59311V8.60649L7.93047 7.93038Z" fill="white"/>
</svg>
