<svg width="30" height="30" viewBox="0 0 30 30" fill="none" xmlns="http://www.w3.org/2000/svg">
<path opacity="0.4" fill-rule="evenodd" clip-rule="evenodd" d="M20 8.25C19.0335 8.25 18.25 9.0335 18.25 10C18.25 10.9665 19.0335 11.75 20 11.75C20.9665 11.75 21.75 10.9665 21.75 10C21.75 9.0335 20.9665 8.25 20 8.25ZM16.75 10C16.75 8.20507 18.2051 6.75 20 6.75C21.7949 6.75 23.25 8.20507 23.25 10C23.25 11.7949 21.7949 13.25 20 13.25C18.2051 13.25 16.75 11.7949 16.75 10Z" fill="#F5F5F5"/>
<path fill-rule="evenodd" clip-rule="evenodd" d="M12.1 1.75H12.0661C10.4146 1.75 9.12922 1.74999 8.09814 1.83424C7.05124 1.91977 6.20065 2.09588 5.43556 2.48571C4.16547 3.13285 3.13285 4.16547 2.48571 5.43556C2.09588 6.20065 1.91977 7.05124 1.83424 8.09814C1.74999 9.12922 1.75 10.4146 1.75 12.0661V12.1V17.9V17.9339C1.75 19.5854 1.74999 20.8708 1.83424 21.9019C1.91977 22.9488 2.09588 23.7994 2.48571 24.5644C3.13285 25.8345 4.16547 26.8671 5.43556 27.5143C6.20065 27.9041 7.05124 28.0802 8.09814 28.1658C9.12921 28.25 10.4146 28.25 12.066 28.25H12.066H12.1H17.9H17.934H17.934C19.5854 28.25 20.8708 28.25 21.9019 28.1658C22.9488 28.0802 23.7994 27.9041 24.5644 27.5143C25.8345 26.8671 26.8671 25.8345 27.5143 24.5644C27.9041 23.7994 28.0802 22.9488 28.1658 21.9019C28.25 20.8708 28.25 19.5854 28.25 17.934V17.934V17.9V12.1V12.066V12.066C28.25 10.4146 28.25 9.12921 28.1658 8.09814C28.0802 7.05124 27.9041 6.20065 27.5143 5.43556C26.8671 4.16547 25.8345 3.13285 24.5644 2.48571C23.7994 2.09588 22.9488 1.91977 21.9019 1.83424C20.8708 1.74999 19.5854 1.75 17.9339 1.75H17.9H12.1ZM6.11655 3.82222C6.63493 3.55809 7.26615 3.40721 8.22029 3.32925C9.18317 3.25058 10.4075 3.25 12.1 3.25H17.9C19.5925 3.25 20.8168 3.25058 21.7797 3.32925C22.7338 3.40721 23.3651 3.55809 23.8834 3.82222C24.8713 4.32555 25.6744 5.1287 26.1778 6.11655C26.4419 6.63493 26.5928 7.26615 26.6707 8.22029C26.7494 9.18317 26.75 10.4075 26.75 12.1V17.9C26.75 19.1133 26.7497 20.086 26.7205 20.8943L25.0587 19.2324L25.0372 19.2109C24.6595 18.8332 24.3442 18.5179 24.0656 18.2814C23.7751 18.0347 23.4754 17.83 23.1154 17.713C22.5631 17.5336 21.9682 17.5336 21.4158 17.713C21.0558 17.83 20.7562 18.0347 20.4656 18.2814C20.187 18.5179 19.8718 18.8332 19.4941 19.2109L19.494 19.211L19.4725 19.2324L18.144 20.561L18.0999 20.6051L14.0347 16.6583L14.013 16.6373L14.013 16.6372C13.6349 16.2702 13.3192 15.9636 13.0406 15.7338C12.7498 15.4941 12.4508 15.2957 12.0934 15.1836C11.5446 15.0116 10.9556 15.0159 10.4094 15.1961C10.0537 15.3134 9.75762 15.5162 9.47044 15.7602C9.19526 15.994 8.88406 16.3053 8.51146 16.6779L8.51145 16.6779L8.49011 16.6992L3.33551 21.8538C3.33338 21.8293 3.33129 21.8046 3.32925 21.7797C3.25058 20.8168 3.25 19.5925 3.25 17.9V12.1C3.25 10.4075 3.25058 9.18317 3.32925 8.22029C3.40721 7.26615 3.55809 6.63493 3.82222 6.11655C4.32555 5.1287 5.1287 4.32555 6.11655 3.82222ZM3.56658 23.2273C3.63673 23.4704 3.72119 23.6852 3.82222 23.8834C4.32555 24.8713 5.1287 25.6744 6.11655 26.1778C6.63493 26.4419 7.26615 26.5928 8.22029 26.6707C9.18317 26.7494 10.4075 26.75 12.1 26.75H17.9C19.5925 26.75 20.8168 26.7494 21.7797 26.6707C21.8679 26.6635 21.9534 26.6557 22.0362 26.6472L17.5813 22.1923L12.9898 17.7345C12.5845 17.341 12.3123 17.0775 12.0863 16.8911C11.8671 16.7104 11.741 16.6451 11.6447 16.6149C11.3952 16.5367 11.1275 16.5387 10.8792 16.6206C10.7834 16.6522 10.6582 16.7193 10.4418 16.9032C10.2185 17.0929 9.95022 17.3604 9.55077 17.7599L4.28033 23.0303C4.08685 23.2238 3.81397 23.2895 3.56658 23.2273ZM23.7404 26.2465C23.7891 26.2245 23.8367 26.2016 23.8834 26.1778C24.8713 25.6744 25.6744 24.8713 26.1778 23.8834C26.3366 23.5718 26.4544 23.2195 26.5401 22.7807C26.4696 22.7455 26.4035 22.6985 26.3447 22.6397L23.998 20.2931C23.5933 19.8883 23.3212 19.617 23.0949 19.4249C22.8753 19.2385 22.7486 19.171 22.6519 19.1396C22.4008 19.058 22.1304 19.058 21.8794 19.1396C21.7827 19.171 21.656 19.2385 21.4364 19.4249C21.2101 19.617 20.938 19.8883 20.5332 20.2931L19.2047 21.6216L19.1683 21.658L23.6553 26.145C23.6872 26.1768 23.7155 26.2108 23.7404 26.2465Z" fill="#F5F5F5"/>
</svg>
