<svg  viewBox="0 0 30 30" fill="none" xmlns="http://www.w3.org/2000/svg">
<path opacity="0.4" fill-rule="evenodd" clip-rule="evenodd" d="M16.1332 2.30718C15.3917 2.10203 14.6084 2.10203 13.8668 2.30718C13.4834 2.41325 13.0909 2.61075 12.5571 2.97716C12.0154 3.34893 11.3713 3.86366 10.471 4.5839L9.21855 5.58585L6.09355 8.08585C5.7701 8.34461 5.29813 8.29216 5.03938 7.96872C4.78062 7.64527 4.83306 7.1733 5.15651 6.91454L8.28151 4.41454L9.53395 3.41259L9.55685 3.39427C10.4292 2.69635 11.1159 2.14698 11.7082 1.74046C12.3134 1.32504 12.8613 1.02902 13.4669 0.861479C14.4701 0.583934 15.5299 0.583934 16.5332 0.861479C17.1388 1.02902 17.6866 1.32504 18.2919 1.74046C18.8841 2.14698 19.5708 2.69634 20.4432 3.39425L20.4661 3.41259L21.7185 4.41454L24.8435 6.91454C25.167 7.1733 25.2194 7.64527 24.9607 7.96872C24.7019 8.29216 24.23 8.34461 23.9065 8.08585L20.7815 5.58585L19.5291 4.5839C18.6288 3.86366 17.9846 3.34893 17.443 2.97716C16.9092 2.61075 16.5166 2.41325 16.1332 2.30718Z" fill="#F5F5F5"/>
<path fill-rule="evenodd" clip-rule="evenodd" d="M6.83567 6.53151C7.09443 6.85495 7.04199 7.32692 6.71854 7.58568L6.09354 8.08568L5.97098 8.18373C4.83583 9.09185 4.38235 9.46272 4.059 9.90878C3.76019 10.321 3.53787 10.7835 3.40265 11.2744C3.25633 11.8055 3.25002 12.3913 3.25002 13.845V21.25C3.25002 22.4476 3.25365 22.9369 3.33168 23.3292C3.66704 25.0151 4.98495 26.333 6.67089 26.6684C7.06317 26.7464 7.55243 26.75 8.75002 26.75C9.25062 26.75 9.3914 26.7464 9.49388 26.726C9.98975 26.6274 10.3774 26.2398 10.476 25.7439C10.4964 25.6414 10.5 25.5006 10.5 25V20C10.5 17.5147 12.5147 15.5 15 15.5C17.4853 15.5 19.5 17.5147 19.5 20V25C19.5 25.5006 19.5037 25.6414 19.524 25.7439C19.6227 26.2398 20.0103 26.6274 20.5062 26.726C20.6086 26.7464 20.7494 26.75 21.25 26.75C22.4476 26.75 22.9369 26.7464 23.3292 26.6684C25.0151 26.333 26.333 25.0151 26.6684 23.3292C26.7464 22.9369 26.75 22.4476 26.75 21.25V13.845C26.75 12.3913 26.7437 11.8055 26.5974 11.2744C26.4622 10.7835 26.2398 10.321 25.941 9.90878C25.6177 9.46272 25.1642 9.09185 24.0291 8.18373L23.9065 8.08568L23.2815 7.58568C22.9581 7.32692 22.9056 6.85495 23.1644 6.53151C23.4231 6.20806 23.8951 6.15562 24.2185 6.41438L24.8435 6.91438L24.9661 7.01242C24.9964 7.03667 25.0264 7.06064 25.056 7.08434C26.0727 7.8975 26.6985 8.398 27.1555 9.02841C27.5598 9.58612 27.8606 10.2119 28.0435 10.876C28.2503 11.6267 28.2502 12.428 28.25 13.7299C28.25 13.7678 28.25 13.8062 28.25 13.845V21.25L28.25 21.3511C28.2501 22.4164 28.2502 23.0655 28.1395 23.6218C27.6858 25.9028 25.9028 27.6858 23.6218 28.1395C23.0655 28.2502 22.4163 28.2501 21.351 28.25C21.3178 28.25 21.2841 28.25 21.25 28.25C21.2253 28.25 21.2008 28.25 21.1768 28.2501C20.784 28.2502 20.481 28.2504 20.2135 28.1972C19.1226 27.9802 18.2699 27.1274 18.0529 26.0365C17.9996 25.769 17.9998 25.466 18 25.0733C18 25.0492 18 25.0248 18 25V20C18 18.3431 16.6569 17 15 17C13.3432 17 12 18.3431 12 20V25C12 25.0248 12 25.0492 12 25.0733C12.0002 25.466 12.0004 25.769 11.9472 26.0365C11.7302 27.1274 10.8774 27.9802 9.78652 28.1972C9.51901 28.2504 9.21601 28.2502 8.82328 28.2501C8.7992 28.25 8.77478 28.25 8.75002 28.25C8.71593 28.25 8.68226 28.25 8.649 28.25C7.5837 28.2501 6.93459 28.2502 6.37825 28.1395C4.09728 27.6858 2.31422 25.9028 1.8605 23.6218C1.74984 23.0655 1.74991 22.4164 1.75001 21.3511C1.75002 21.3178 1.75002 21.2841 1.75002 21.25V13.845C1.75002 13.8062 1.75001 13.7678 1.75001 13.7299C1.74984 12.428 1.74973 11.6267 1.95653 10.876C2.13947 10.2119 2.44025 9.58612 2.84453 9.02841C3.30151 8.398 3.9273 7.8975 4.94403 7.08433C4.97367 7.06063 5.00363 7.03667 5.03394 7.01242L5.1565 6.91438L5.7815 6.41438C6.10494 6.15562 6.57691 6.20806 6.83567 6.53151Z" fill="#F5F5F5"/>
</svg>
