<svg width="48" height="48" viewBox="0 0 48 48" fill="none" xmlns="http://www.w3.org/2000/svg">
<path d="M24 6H18.8C14.3196 6 12.0794 6 10.3681 6.87195C8.86278 7.63893 7.63893 8.86278 6.87195 10.3681C6 12.0794 6 14.3196 6 18.8V29.2C6 33.6804 6 35.9206 6.87195 37.6319C7.63893 39.1372 8.86278 40.3611 10.3681 41.1281C12.0794 42 14.3196 42 18.8 42H30.6675C33.7695 42 35.3205 42 36.5709 41.5756C38.9265 40.7762 40.7762 38.9265 41.5756 36.5709C42 35.3205 42 33.7695 42 30.6675C42 28.7134 42 27.7363 41.7097 27.1254C41.1588 25.9657 39.9309 25.2852 38.6555 25.4326C37.9836 25.5103 37.1551 26.0281 35.498 27.0638L29.7778 30.6389C27.5181 32.0512 24.6106 31.8711 22.5424 30.1907C19.9887 28.1158 16.262 28.3828 14.0302 30.8006L12 33" stroke="white" stroke-width="3" stroke-linecap="round"/>
<path d="M37.9408 3.29009C37.9539 3.22557 38.0461 3.22557 38.0593 3.29009C38.7438 6.63906 41.361 9.25625 44.71 9.94075C44.7745 9.95394 44.7745 10.0461 44.71 10.0593C41.361 10.7438 38.7438 13.361 38.0593 16.71C38.0461 16.7745 37.9539 16.7745 37.9408 16.71C37.2562 13.361 34.6391 10.7438 31.2901 10.0593C31.2256 10.0461 31.2256 9.95394 31.2901 9.94075C34.6391 9.25625 37.2562 6.63906 37.9408 3.29009Z" stroke="#8B5AD0" stroke-width="3"/>
<path d="M18 18V18.1" stroke="white" stroke-width="4" stroke-linecap="round"/>
</svg>
