<svg width="20" height="20" viewBox="0 0 20 20" fill="none" xmlns="http://www.w3.org/2000/svg">
<path fill-rule="evenodd" clip-rule="evenodd" d="M11.3626 3.68222C10.178 2.49762 8.25739 2.49763 7.0728 3.68222L4.19604 6.55899L4.19999 6.56294C3.57519 7.23953 3.18156 7.94317 3.09709 8.70242C3.00277 9.55018 3.30816 10.3333 3.83416 11.0639C3.88223 11.1306 3.90042 11.2192 3.88276 11.3047C3.86559 11.3877 3.82106 11.4421 3.76763 11.4703C3.00575 11.8725 2.1018 12.4638 1.6284 13.2538C1.37912 13.6697 1.23586 14.1636 1.32238 14.7087C1.40768 15.2459 1.70295 15.7489 2.17077 16.2167C2.64598 16.6919 3.15686 16.9887 3.69983 17.0854C4.24706 17.1829 4.75336 17.0642 5.19112 16.8388C6.02968 16.4072 6.68598 15.5499 7.13849 14.8236C7.16842 14.7756 7.2228 14.7343 7.30913 14.7191C7.39891 14.7033 7.49802 14.722 7.57668 14.7731C8.2413 15.205 8.97847 15.4303 9.77859 15.2984C10.4879 15.1816 11.1648 14.7971 11.8246 14.1875L11.8285 14.1915L14.7053 11.3147C15.8899 10.1301 15.8899 8.20949 14.7053 7.0249L11.3626 3.68222ZM10.8766 13.2395L5.14799 7.51094C4.66754 8.0415 4.46957 8.47926 4.42827 8.85052C4.38288 9.2585 4.5128 9.71412 4.92114 10.2813C5.46572 11.0377 5.28139 12.1858 4.39291 12.6548C3.66322 13.04 3.04904 13.4888 2.77727 13.9423C2.65397 14.148 2.61789 14.3266 2.64521 14.4987C2.67376 14.6785 2.78552 14.9373 3.11786 15.2696C3.45255 15.6043 3.72733 15.7298 3.9348 15.7668C4.13801 15.803 4.34692 15.767 4.57812 15.648C5.0775 15.3909 5.57419 14.8015 6.00169 14.1153C6.51392 13.2932 7.59025 13.1847 8.30641 13.65C8.76418 13.9474 9.16726 14.0417 9.56081 13.9769C9.92328 13.9171 10.3584 13.7091 10.8766 13.2395ZM8.0199 4.62931C8.68142 3.96779 9.75396 3.96779 10.4155 4.62931L13.7582 7.972C14.4197 8.63352 14.4197 9.70606 13.7582 10.3676L11.8285 12.2973L6.09023 6.55899L8.0199 4.62931Z" fill="white"/>
<path d="M15.2508 0.969807C15.3489 0.565403 15.924 0.565403 16.0221 0.969807L16.2919 2.08255C16.3269 2.22693 16.4397 2.33967 16.584 2.37468L17.6968 2.6445C18.1012 2.74256 18.1012 3.31772 17.6968 3.41578L16.584 3.6856C16.4397 3.72061 16.3269 3.83335 16.2919 3.97773L16.0221 5.09047C15.924 5.49488 15.3489 5.49488 15.2508 5.09047L14.981 3.97773C14.946 3.83335 14.8332 3.72061 14.6889 3.6856L13.5761 3.41578C13.1717 3.31772 13.1717 2.74256 13.5761 2.6445L14.6889 2.37468C14.8332 2.33967 14.946 2.22693 14.981 2.08255L15.2508 0.969807Z" fill="white"/>
<path fill-rule="evenodd" clip-rule="evenodd" d="M15.6364 1.40009L15.4437 2.19476C15.3667 2.51241 15.1187 2.76042 14.8011 2.83744L14.0064 3.03014L14.8011 3.22284C15.1187 3.29986 15.3667 3.54787 15.4437 3.86552L15.6364 4.66019L15.8291 3.86552C15.9062 3.54787 16.1542 3.29986 16.4718 3.22284L17.2665 3.03014L16.4718 2.83744C16.1542 2.76042 15.9062 2.51241 15.8291 2.19476L15.6364 1.40009ZM16.0221 0.969807C15.924 0.565403 15.3489 0.565403 15.2508 0.969807L14.981 2.08255C14.946 2.22693 14.8332 2.33967 14.6889 2.37468L13.5761 2.6445C13.1717 2.74256 13.1717 3.31772 13.5761 3.41578L14.6889 3.6856C14.8332 3.72061 14.946 3.83335 14.981 3.97773L15.2508 5.09047C15.3489 5.49488 15.924 5.49488 16.0221 5.09047L16.2919 3.97773C16.3269 3.83335 16.4397 3.72061 16.584 3.6856L17.6968 3.41578C18.1012 3.31772 18.1012 2.74256 17.6968 2.6445L16.584 2.37468C16.4397 2.33967 16.3269 2.22693 16.2919 2.08255L16.0221 0.969807Z" fill="white"/>
<path d="M2.24251 3.81802C2.24251 4.25315 1.88976 4.6059 1.45463 4.6059C1.01949 4.6059 0.666748 4.25315 0.666748 3.81802C0.666748 3.38289 1.01949 3.03014 1.45463 3.03014C1.88976 3.03014 2.24251 3.38289 2.24251 3.81802Z" fill="white"/>
<path d="M5.39402 1.45438C5.39402 1.88952 5.04128 2.24226 4.60614 2.24226C4.17101 2.24226 3.81826 1.88952 3.81826 1.45438C3.81826 1.01925 4.17101 0.666504 4.60614 0.666504C5.04128 0.666504 5.39402 1.01925 5.39402 1.45438Z" fill="white"/>
<path d="M15.709 14.3132C15.7907 13.9762 16.27 13.9762 16.3518 14.3132L16.5766 15.2405C16.6058 15.3608 16.6997 15.4547 16.82 15.4839L17.7473 15.7088C18.0843 15.7905 18.0843 16.2698 17.7473 16.3515L16.82 16.5764C16.6997 16.6055 16.6058 16.6995 16.5766 16.8198L16.3518 17.7471C16.27 18.0841 15.7907 18.0841 15.709 17.7471L15.4842 16.8198C15.455 16.6995 15.361 16.6055 15.2407 16.5764L14.3134 16.3515C13.9764 16.2698 13.9764 15.7905 14.3134 15.7088L15.2407 15.4839C15.361 15.4547 15.455 15.3608 15.4842 15.2405L15.709 14.3132Z" fill="white"/>
<path fill-rule="evenodd" clip-rule="evenodd" d="M16.0304 14.6718L15.8698 15.334C15.8056 15.5987 15.5989 15.8054 15.3342 15.8696L14.672 16.0301L15.3342 16.1907C15.5989 16.2549 15.8056 16.4616 15.8698 16.7263L16.0304 17.3885L16.191 16.7263C16.2552 16.4616 16.4618 16.2549 16.7265 16.1907L17.3888 16.0301L16.7265 15.8696C16.4618 15.8054 16.2552 15.5987 16.191 15.334L16.0304 14.6718ZM16.3518 14.3132C16.27 13.9762 15.7907 13.9762 15.709 14.3132L15.4842 15.2405C15.455 15.3608 15.361 15.4547 15.2407 15.4839L14.3134 15.7088C13.9764 15.7905 13.9764 16.2698 14.3134 16.3515L15.2407 16.5764C15.361 16.6055 15.455 16.6995 15.4842 16.8198L15.709 17.7471C15.7907 18.0841 16.27 18.0841 16.3518 17.7471L16.5766 16.8198C16.6058 16.6995 16.6997 16.6055 16.82 16.5764L17.7473 16.3515C18.0843 16.2698 18.0843 15.7905 17.7473 15.7088L16.82 15.4839C16.6997 15.4547 16.6058 15.3608 16.5766 15.2405L16.3518 14.3132Z" fill="white"/>
</svg>
