<svg width="30" height="30" viewBox="0 0 30 30" fill="none" xmlns="http://www.w3.org/2000/svg">
<path opacity="0.4" fill-rule="evenodd" clip-rule="evenodd" d="M15 1.75C10.5775 1.75 6.75 4.76178 6.75 8.75C6.75 12.7382 10.5775 15.75 15 15.75C18.8618 15.75 21.75 18.3347 21.75 21.25C21.75 24.1653 18.8618 26.75 15 26.75C14.5858 26.75 14.25 27.0858 14.25 27.5C14.25 27.9142 14.5858 28.25 15 28.25C19.4225 28.25 23.25 25.2382 23.25 21.25C23.25 17.2618 19.4225 14.25 15 14.25C11.1382 14.25 8.25 11.6653 8.25 8.75C8.25 5.83466 11.1382 3.25 15 3.25C15.4142 3.25 15.75 2.91421 15.75 2.5C15.75 2.08579 15.4142 1.75 15 1.75ZM14.9998 8.75C14.9998 9.44036 14.4402 10 13.7498 10C13.0595 10 12.4998 9.44036 12.4998 8.75C12.4998 8.05964 13.0595 7.5 13.7498 7.5C14.4402 7.5 14.9998 8.05964 14.9998 8.75ZM17.4998 21.25C17.4998 21.9404 16.9402 22.5 16.2498 22.5C15.5595 22.5 14.9998 21.9404 14.9998 21.25C14.9998 20.5596 15.5595 20 16.2498 20C16.9402 20 17.4998 20.5596 17.4998 21.25Z" fill="#F5F5F5"/>
<path fill-rule="evenodd" clip-rule="evenodd" d="M15 3.25C8.51065 3.25 3.25 8.51066 3.25 15C3.25 21.4893 8.51065 26.75 15 26.75C21.4893 26.75 26.75 21.4893 26.75 15C26.75 8.51066 21.4893 3.25 15 3.25ZM1.75 15C1.75 7.68223 7.68222 1.75 15 1.75C22.3178 1.75 28.25 7.68223 28.25 15C28.25 22.3178 22.3178 28.25 15 28.25C7.68222 28.25 1.75 22.3178 1.75 15Z" fill="#F5F5F5"/>
</svg>
