<svg width="24" height="24" viewBox="0 0 24 24" fill="none" xmlns="http://www.w3.org/2000/svg">
<path opacity="0.4" fill-rule="evenodd" clip-rule="evenodd" d="M1.25 12C1.25 10.2108 2.71079 8.75 4.5 8.75C6.28921 8.75 7.75 10.2108 7.75 12C7.75 13.7892 6.28921 15.25 4.5 15.25C2.71079 15.25 1.25 13.7892 1.25 12ZM4.5 10.25C3.53921 10.25 2.75 11.0392 2.75 12C2.75 12.9608 3.53921 13.75 4.5 13.75C5.46079 13.75 6.25 12.9608 6.25 12C6.25 11.0392 5.46079 10.25 4.5 10.25Z" fill="#F5F5F5"/>
<path fill-rule="evenodd" clip-rule="evenodd" d="M12 8.75C10.2108 8.75 8.75 10.2108 8.75 12C8.75 13.7892 10.2108 15.25 12 15.25C13.7892 15.25 15.25 13.7892 15.25 12C15.25 10.2108 13.7892 8.75 12 8.75ZM10.25 12C10.25 11.0392 11.0392 10.25 12 10.25C12.9608 10.25 13.75 11.0392 13.75 12C13.75 12.9608 12.9608 13.75 12 13.75C11.0392 13.75 10.25 12.9608 10.25 12ZM19.5 8.75C17.7108 8.75 16.25 10.2108 16.25 12C16.25 13.7892 17.7108 15.25 19.5 15.25C21.2892 15.25 22.75 13.7892 22.75 12C22.75 10.2108 21.2892 8.75 19.5 8.75ZM17.75 12C17.75 11.0392 18.5392 10.25 19.5 10.25C20.4608 10.25 21.25 11.0392 21.25 12C21.25 12.9608 20.4608 13.75 19.5 13.75C18.5392 13.75 17.75 12.9608 17.75 12Z" fill="#F5F5F5"/>
</svg>
