<svg width="20" height="20" viewBox="0 0 20 20" fill="none" xmlns="http://www.w3.org/2000/svg">
<path fill-rule="evenodd" clip-rule="evenodd" d="M2.86884 7.15216C2.91256 6.93417 3.0741 6.56644 3.40499 6.10779C3.72673 5.66183 4.17686 5.17412 4.73758 4.71487C5.86162 3.79423 7.38305 3.0251 9.1368 2.89317C12.6198 2.63116 14.644 4.90268 15.7144 6.48102L14.387 6.1396C13.9726 6.03301 13.5495 6.27997 13.4421 6.6912C13.3347 7.10243 13.5836 7.52221 13.998 7.6288L16.2746 8.21433C17.2151 8.45624 18.1597 7.83646 18.3036 6.88296L18.6579 4.53571C18.7213 4.11557 18.4295 3.72397 18.0061 3.66104C17.5827 3.5981 17.1881 3.88767 17.1247 4.30781L16.9398 5.53257C15.7386 3.78943 13.2774 1.03887 9.01961 1.35916C6.87993 1.52012 5.06424 2.45254 3.75067 3.52842C3.09258 4.06742 2.54879 4.65171 2.14437 5.21228C1.74911 5.76016 1.45228 6.33348 1.34831 6.85187C1.26475 7.26852 1.53738 7.6735 1.95727 7.75642C2.37715 7.83935 2.78528 7.56881 2.86884 7.15216ZM16.5948 13.8925C16.9257 13.4339 17.0873 13.0662 17.131 12.8482C17.2146 12.4315 17.6227 12.161 18.0426 12.2439C18.4625 12.3268 18.7351 12.7318 18.6515 13.1485C18.5476 13.6668 18.2507 14.2402 17.8555 14.788C17.451 15.3486 16.9073 15.9329 16.2492 16.4719C14.9356 17.5478 13.1199 18.4802 10.9802 18.6412C6.72247 18.9615 4.26123 16.2109 3.06004 14.4678L2.87516 15.6925C2.81174 16.1127 2.41709 16.4022 1.9937 16.3393C1.5703 16.2764 1.27849 15.8848 1.34191 15.4646L1.69624 13.1174C1.84018 12.1639 2.78474 11.5441 3.72528 11.786L6.00185 12.3715C6.41627 12.4781 6.66515 12.8979 6.55773 13.3091C6.45031 13.7204 6.02728 13.9673 5.61285 13.8607L4.2854 13.5193C5.35582 15.0977 7.38001 17.3692 10.863 17.1072C12.6168 16.9752 14.1382 16.2061 15.2623 15.2855C15.823 14.8262 16.2731 14.3385 16.5948 13.8925ZM6.53325 7.40016C6.05461 7.40016 5.66659 7.01214 5.66659 6.5335C5.66659 6.05485 6.05461 5.66683 6.53325 5.66683C7.0119 5.66683 7.39992 6.05485 7.39992 6.5335C7.39992 7.01214 7.0119 7.40016 6.53325 7.40016ZM9.57572 7.7338C9.68358 7.28895 10.3163 7.28895 10.4241 7.7338L10.7209 8.95781C10.7594 9.11664 10.8834 9.24064 11.0423 9.27915L12.2663 9.57596C12.7111 9.68383 12.7111 10.3165 12.2663 10.4244L11.0423 10.7212C10.8834 10.7597 10.7594 10.8837 10.7209 11.0425L10.4241 12.2665C10.3163 12.7114 9.68358 12.7114 9.57572 12.2665L9.27891 11.0425C9.2404 10.8837 9.11639 10.7597 8.95757 10.7212L7.73355 10.4244C7.70575 10.4176 7.67968 10.4088 7.65536 10.3982C7.29045 10.2395 7.31651 9.67709 7.73355 9.57596L8.95757 9.27915C9.11639 9.24064 9.2404 9.11664 9.27891 8.95781L9.57572 7.7338ZM12.5999 13.4668C12.5999 13.9455 12.9879 14.3335 13.4666 14.3335C13.9452 14.3335 14.3333 13.9455 14.3333 13.4668C14.3333 12.9882 13.9452 12.6002 13.4666 12.6002C12.9879 12.6002 12.5999 12.9882 12.5999 13.4668Z" fill="white"/>
</svg>
