<svg width="30" height="30" viewBox="0 0 30 30" fill="none" xmlns="http://www.w3.org/2000/svg">
<path opacity="0.4" fill-rule="evenodd" clip-rule="evenodd" d="M18.0305 13.0303C18.3234 12.7374 18.3234 12.2626 18.0305 11.9697C17.7376 11.6768 17.2627 11.6768 16.9699 11.9697L13.5404 15.3991C13.3165 15.2792 13.0633 15.182 12.7646 15.0673L12.692 15.0394L7.51944 13.05C7.13283 12.9013 6.69889 13.0942 6.55019 13.4808C6.4015 13.8674 6.59436 14.3013 6.98097 14.45L12.1535 16.4395C12.6782 16.6413 12.8165 16.7003 12.927 16.7789C13.0408 16.8599 13.1403 16.9594 13.2213 17.0732C13.2999 17.1837 13.3589 17.322 13.5607 17.8467L15.4539 22.7692C15.6026 23.1558 16.0366 23.3487 16.4232 23.2C16.8098 23.0513 17.0026 22.6174 16.854 22.2308L14.9608 17.3082L14.9329 17.2356C14.8182 16.9369 14.721 16.6837 14.6011 16.4597L18.0305 13.0303Z" fill="#F5F5F5"/>
<path fill-rule="evenodd" clip-rule="evenodd" d="M25.4994 2.98647C25.0166 3.07509 24.384 3.25143 23.4739 3.50625L6.72986 8.19459C5.41291 8.56333 4.46853 8.82833 3.79888 9.07279C3.08912 9.33189 2.87705 9.50728 2.82106 9.58822C2.54947 9.98091 2.52529 10.494 2.75876 10.9105C2.80689 10.9963 3.00153 11.1909 3.68379 11.5156C4.32748 11.8219 5.24275 12.1745 6.5192 12.6655L7.7692 13.1463C8.15581 13.295 8.34867 13.7289 8.19998 14.1155C8.05128 14.5021 7.61734 14.695 7.23073 14.5463L5.98073 14.0655L5.94733 14.0527C4.7114 13.5773 3.74159 13.2043 3.0392 12.87C2.36906 12.5511 1.75515 12.1877 1.45033 11.644C0.936684 10.7277 0.989872 9.59888 1.58739 8.73496C1.94199 8.22227 2.58735 7.91824 3.2845 7.66374C4.01521 7.39699 5.0158 7.11683 6.29095 6.75979L6.32541 6.75014L23.0695 2.0618L23.1063 2.05148C23.9708 1.80942 24.6699 1.61366 25.2286 1.51111C25.7902 1.40804 26.3354 1.37216 26.8393 1.563C27.5762 1.84208 28.158 2.42386 28.4371 3.16076C28.6279 3.66465 28.592 4.20988 28.4889 4.77145C28.3864 5.33015 28.1906 6.02927 27.9485 6.89376L27.9382 6.93058L23.2497 23.6747L23.2401 23.7092C22.883 24.9843 22.6029 25.9849 22.3361 26.7155C22.0816 27.4127 21.7776 28.058 21.265 28.4126C20.401 29.0102 19.2721 29.0633 18.3558 28.5496C17.812 28.2448 17.4487 27.6309 17.1298 26.9608C16.7956 26.2584 16.4226 25.2886 15.9473 24.0527L15.9344 24.0193L15.4537 22.7693C15.305 22.3827 15.4979 21.9488 15.8845 21.8001C16.2711 21.6514 16.705 21.8443 16.8537 22.2309L17.3345 23.4809C17.8254 24.7573 18.178 25.6725 18.4843 26.3162C18.8089 26.9984 19.0035 27.1931 19.0893 27.2412C19.5058 27.4747 20.019 27.4506 20.4117 27.1789C20.4926 27.1229 20.668 26.9109 20.9271 26.2011C21.1715 25.5315 21.4365 24.5872 21.8053 23.2703L26.4938 6.52612C26.7486 5.61608 26.925 4.98348 27.0136 4.50065C27.1031 4.0128 27.0763 3.80281 27.0343 3.69202C26.9074 3.35707 26.643 3.09262 26.308 2.96576C26.1973 2.9238 25.9873 2.89693 25.4994 2.98647Z" fill="#F5F5F5"/>
</svg>
