<svg width="48" height="48" viewBox="0 0 48 48" fill="none" xmlns="http://www.w3.org/2000/svg">
<path d="M36.9407 29.2901C36.9539 29.2255 37.0461 29.2255 37.0593 29.2901V29.2901C37.7438 32.639 40.361 35.2562 43.7099 35.9407V35.9407C43.7745 35.9539 43.7745 36.0461 43.7099 36.0593V36.0593C40.361 36.7438 37.7438 39.361 37.0593 42.7099V42.7099C37.0461 42.7745 36.9539 42.7745 36.9407 42.7099V42.7099C36.2562 39.361 33.639 36.7438 30.2901 36.0593V36.0593C30.2255 36.0461 30.2255 35.9539 30.2901 35.9407V35.9407C33.639 35.2562 36.2562 32.639 36.9407 29.2901V29.2901Z" stroke="#8B5AD0" stroke-width="3"/>
<path d="M6.00006 18.9998V17.4998H4.50006V18.9998H6.00006ZM42.5001 25.9998C42.5001 26.8282 43.1716 27.4998 44.0001 27.4998C44.8285 27.4998 45.5001 26.8282 45.5001 25.9998H42.5001ZM25.5001 43.4998C26.3285 43.4998 27.0001 42.8282 27.0001 41.9998C27.0001 41.1714 26.3285 40.4998 25.5001 40.4998V43.4998ZM6.87201 37.6317L5.5355 38.3127L6.87201 37.6317ZM10.3681 41.1279L11.0491 39.7914L10.3681 41.1279ZM41.816 19.4358L42.497 18.0993H42.497L41.816 19.4358ZM43.5641 21.1839L42.2276 21.8648V21.8648L43.5641 21.1839ZM32.5527 5.04089C32.7526 4.23694 32.2629 3.42317 31.459 3.22328C30.655 3.0234 29.8413 3.51308 29.6414 4.31703L32.5527 5.04089ZM27.265 13.8749C27.0651 14.6788 27.5548 15.4926 28.3587 15.6925C29.1627 15.8924 29.9765 15.4027 30.1763 14.5988L27.265 13.8749ZM20.735 7.12467C20.9349 6.32072 20.4452 5.50695 19.6413 5.30706C18.8373 5.10717 18.0236 5.59686 17.8237 6.40081L20.735 7.12467ZM15.4473 15.9587C15.2474 16.7626 15.7371 17.5764 16.541 17.7763C17.345 17.9762 18.1588 17.4865 18.3587 16.6825L15.4473 15.9587ZM6.06981 18.2309L4.5926 18.4914L4.85307 19.9686L6.33028 19.7081L6.06981 18.2309ZM40.5381 12.1532L40.2776 10.676L40.5381 12.1532ZM36.0208 3.81091L36.2813 5.28812L36.0208 3.81091ZM13.3702 7.80481L13.1098 6.3276L13.3702 7.80481ZM8.23391 9.17426L7.42796 7.90917L8.23391 9.17426ZM5.59993 12.936L7.06438 13.2606L5.59993 12.936ZM6.00006 20.4998H37.6001V17.4998H6.00006V20.4998ZM7.50006 29.1998V18.9998H4.50006V29.1998H7.50006ZM42.5001 25.3998V25.9998H45.5001V25.3998H42.5001ZM25.5001 40.4998H18.8001V43.4998H25.5001V40.4998ZM4.50006 29.1998C4.50006 31.4153 4.49889 33.1671 4.61404 34.5763C4.73061 36.0031 4.97382 37.2104 5.5355 38.3127L8.20852 36.9508C7.89825 36.3418 7.70549 35.5733 7.60407 34.3321C7.50123 33.0733 7.50006 31.4648 7.50006 29.1998H4.50006ZM18.8001 40.4998C16.5351 40.4998 14.9266 40.4986 13.6678 40.3958C12.4266 40.2944 11.6581 40.1016 11.0491 39.7914L9.68715 42.4644C10.7895 43.0261 11.9968 43.2693 13.4235 43.3858C14.8328 43.501 16.5846 43.4998 18.8001 43.4998V40.4998ZM5.5355 38.3127C6.4463 40.1003 7.89961 41.5536 9.68715 42.4644L11.0491 39.7914C9.82607 39.1682 8.8317 38.1738 8.20852 36.9508L5.5355 38.3127ZM37.6001 20.4998C38.7449 20.4998 39.5133 20.501 40.1051 20.5493C40.6794 20.5963 40.9539 20.68 41.135 20.7723L42.497 18.0993C41.8225 17.7556 41.1092 17.6214 40.3494 17.5593C39.6071 17.4987 38.6954 17.4998 37.6001 17.4998V20.4998ZM45.5001 25.3998C45.5001 24.3045 45.5012 23.3927 45.4406 22.6505C45.3785 21.8907 45.2443 21.1774 44.9006 20.5029L42.2276 21.8648C42.3199 22.046 42.4036 22.3205 42.4505 22.8948C42.4989 23.4865 42.5001 24.255 42.5001 25.3998H45.5001ZM41.135 20.7723C41.6054 21.012 41.9879 21.3944 42.2276 21.8648L44.9006 20.5029C44.3733 19.468 43.5319 18.6266 42.497 18.0993L41.135 20.7723ZM29.6414 4.31703L27.265 13.8749L30.1763 14.5988L32.5527 5.04089L29.6414 4.31703ZM17.8237 6.40081L15.4473 15.9587L18.3587 16.6825L20.735 7.12467L17.8237 6.40081ZM13.6307 9.28203L36.2813 5.28812L35.7604 2.3337L13.1098 6.3276L13.6307 9.28203ZM40.2776 10.676L5.80934 16.7537L6.33028 19.7081L40.7985 13.6304L40.2776 10.676ZM41.4943 8.93834C41.6382 9.75418 41.0934 10.5322 40.2776 10.676L40.7985 13.6304C43.2461 13.1989 44.8803 10.8649 44.4488 8.41739L41.4943 8.93834ZM36.2813 5.28812C38.7288 4.85655 41.0628 6.49081 41.4943 8.93834L44.4488 8.41739C43.7295 4.33818 39.8396 1.61442 35.7604 2.3337L36.2813 5.28812ZM13.1098 6.3276C11.7534 6.56677 10.662 6.75839 9.78667 6.97506C8.89825 7.19497 8.1259 7.46453 7.42796 7.90917L9.03986 10.4393C9.34849 10.2427 9.76772 10.0703 10.5075 9.88717C11.2604 9.7008 12.2339 9.52832 13.6307 9.28203L13.1098 6.3276ZM7.54702 17.9704C7.30073 16.5736 7.12985 15.5999 7.04747 14.8286C6.96653 14.0708 6.98518 13.6179 7.06438 13.2606L4.13549 12.6113C3.95638 13.4192 3.96723 14.2372 4.06444 15.1473C4.16021 16.0439 4.35343 17.135 4.5926 18.4914L7.54702 17.9704ZM7.42796 7.90917C5.75035 8.97792 4.56601 10.6693 4.13549 12.6113L7.06438 13.2606C7.32269 12.0954 8.0333 11.0806 9.03986 10.4393L7.42796 7.90917Z" fill="white"/>
</svg>
