<svg width="24" height="24" viewBox="0 0 24 24" fill="none" xmlns="http://www.w3.org/2000/svg">
<path opacity="0.4" fill-rule="evenodd" clip-rule="evenodd" d="M9.69725 2.81864C9.44744 2.7555 9.15833 2.75004 8.31672 2.75004H6.8C5.94755 2.75004 5.35331 2.75062 4.89068 2.78842C4.4368 2.8255 4.17604 2.89463 3.97852 2.99527C3.55516 3.21099 3.21095 3.55519 2.99524 3.97856C2.8946 4.17608 2.82547 4.43684 2.78838 4.89072C2.75058 5.35335 2.75 5.94758 2.75 6.80004V10C2.75 10.4143 2.41421 10.75 2 10.75C1.58579 10.75 1.25 10.4143 1.25 10V6.80004L1.25 6.76793C1.24999 5.95509 1.24999 5.29948 1.29336 4.76857C1.33803 4.22193 1.43239 3.74179 1.65873 3.29757C2.01825 2.59197 2.59193 2.01829 3.29754 1.65876C3.74175 1.43242 4.2219 1.33806 4.76853 1.2934C5.29944 1.25002 5.95506 1.25003 6.7679 1.25004L6.8 1.25004H8.31672C8.34896 1.25004 8.38075 1.25003 8.41212 1.25002C9.12168 1.2498 9.61093 1.24965 10.0648 1.36437C10.8124 1.55331 11.4835 1.96809 11.9868 2.55221C12.2924 2.90687 12.511 3.34455 12.8282 3.97929C12.8422 4.00735 12.8564 4.03579 12.8708 4.06463C13.1277 4.57839 13.2021 4.71504 13.2891 4.81598C13.4569 5.01069 13.6806 5.14895 13.9298 5.21193C14.0589 5.24458 14.2144 5.25004 14.7889 5.25004H16C16.4142 5.25004 16.75 5.58582 16.75 6.00004C16.75 6.41425 16.4142 6.75004 16 6.75004H14.7889C14.7616 6.75004 14.7347 6.75005 14.7081 6.75007C14.2527 6.75035 13.896 6.75057 13.5622 6.6662C13.014 6.52764 12.5218 6.22347 12.1528 5.79511C11.928 5.53426 11.7687 5.21513 11.5653 4.80771C11.5534 4.78392 11.5414 4.75984 11.5292 4.73545C11.1528 3.98269 11.0186 3.72654 10.8504 3.53134C10.5484 3.18087 10.1458 2.932 9.69725 2.81864Z" fill="#F5F5F5"/>
<path fill-rule="evenodd" clip-rule="evenodd" d="M18.9434 6.88999C18.5089 6.75818 17.9501 6.75004 16.5 6.75004H16C15.5858 6.75004 15.25 6.41425 15.25 6.00004C15.25 5.58583 15.5858 5.25004 16 5.25004H16.5C16.5483 5.25004 16.596 5.25003 16.643 5.25002C17.9011 5.24974 18.703 5.24956 19.3789 5.45457C20.897 5.91509 22.085 7.10308 22.5455 8.62119C22.7505 9.29702 22.7503 10.0989 22.75 11.357C22.75 11.4041 22.75 11.4517 22.75 11.5V15.6V15.6331C22.75 16.7252 22.75 17.5907 22.693 18.2883C22.6347 19.0017 22.5131 19.6053 22.2323 20.1565C21.7769 21.0503 21.0502 21.7769 20.1565 22.2323C19.6053 22.5132 19.0017 22.6348 18.2883 22.6931C17.5906 22.7501 16.7252 22.75 15.633 22.75H15.6H8.4H8.36698C7.27484 22.75 6.40935 22.7501 5.71173 22.6931C4.99834 22.6348 4.39472 22.5132 3.84355 22.2323C2.94978 21.7769 2.22312 21.0503 1.76772 20.1565C1.48688 19.6053 1.36527 19.0017 1.30699 18.2883C1.24999 17.5907 1.24999 16.7252 1.25 15.633L1.25 15.6V10C1.25 9.58583 1.58579 9.25004 2 9.25004C2.41421 9.25004 2.75 9.58583 2.75 10V15.6C2.75 16.7325 2.75058 17.5368 2.80201 18.1662C2.85271 18.7868 2.94909 19.171 3.10423 19.4755C3.41582 20.087 3.913 20.5842 4.52453 20.8958C4.829 21.0509 5.21325 21.1473 5.83388 21.198C6.46326 21.2495 7.26752 21.25 8.4 21.25H15.6C16.7325 21.25 17.5367 21.2495 18.1661 21.198C18.7867 21.1473 19.171 21.0509 19.4755 20.8958C20.087 20.5842 20.5842 20.087 20.8958 19.4755C21.0509 19.171 21.1473 18.7868 21.198 18.1662C21.2494 17.5368 21.25 16.7325 21.25 15.6V11.5C21.25 10.0499 21.2419 9.49111 21.1101 9.05662C20.795 8.01791 19.9821 7.20507 18.9434 6.88999Z" fill="#F5F5F5"/>
</svg>
